<svg height="512pt" viewBox="0 -89 512 512" width="512pt" xmlns="http://www.w3.org/2000/svg"><path d="m497 0h-481.882812c-1.046876 0-2.066407.109375-3.050782.3125-6.878906 1.363281-12.066406 7.429688-12.066406 14.707031l.117188 304.585938c0 8.285156 6.71875 15 15 15h481.882812c8.285156 0 15-6.714844 15-15v-304.605469c0-8.285156-6.714844-15-15-15zm-270.398438 30.019531v152.929688h-196.601562v-152.929688zm30 122.695313h225.398438v30.171875h-225.398438zm225.398438-30h-225.398438v-30.175782h225.398438zm-451.882812 90.234375 451.882812-.0625v30.175781h-451.882812zm451.882812-150.410157h-225.398438v-32.539062h225.398438zm-451.882812 242.066407v-31.546875h451.882812v31.546875zm0 0"/><path d="m92.269531 66.523438c0 8.113281-6.574219 14.6875-14.6875 14.6875s-14.6875-6.574219-14.6875-14.6875c0-8.113282 6.574219-14.6875 14.6875-14.6875s14.6875 6.574218 14.6875 14.6875zm0 0"/><path d="m142.988281 66.523438c0 8.113281-6.578125 14.6875-14.6875 14.6875-8.113281 0-14.6875-6.574219-14.6875-14.6875 0-8.113282 6.574219-14.6875 14.6875-14.6875 8.109375 0 14.6875 6.574218 14.6875 14.6875zm0 0"/><path d="m193.707031 66.523438c0 8.113281-6.578125 14.6875-14.6875 14.6875-8.113281 0-14.691406-6.574219-14.691406-14.6875 0-8.113282 6.578125-14.6875 14.691406-14.6875 8.109375 0 14.6875 6.574218 14.6875 14.6875zm0 0"/><path d="m92.269531 107.726562c0 8.113282-6.574219 14.6875-14.6875 14.6875s-14.6875-6.574218-14.6875-14.6875c0-8.109374 6.574219-14.6875 14.6875-14.6875s14.6875 6.578126 14.6875 14.6875zm0 0"/><path d="m142.988281 107.726562c0 8.113282-6.578125 14.6875-14.6875 14.6875-8.113281 0-14.6875-6.574218-14.6875-14.6875 0-8.109374 6.574219-14.6875 14.6875-14.6875 8.109375 0 14.6875 6.578126 14.6875 14.6875zm0 0"/><path d="m193.707031 107.726562c0 8.113282-6.578125 14.6875-14.6875 14.6875-8.113281 0-14.691406-6.574218-14.691406-14.6875 0-8.109374 6.578125-14.6875 14.691406-14.6875 8.109375 0 14.6875 6.578126 14.6875 14.6875zm0 0"/><path d="m92.269531 148.933594c0 8.109375-6.574219 14.6875-14.6875 14.6875s-14.6875-6.578125-14.6875-14.6875c0-8.113282 6.574219-14.691406 14.6875-14.691406s14.6875 6.578124 14.6875 14.691406zm0 0"/><path d="m142.988281 148.933594c0 8.109375-6.578125 14.6875-14.6875 14.6875-8.113281 0-14.6875-6.578125-14.6875-14.6875 0-8.113282 6.574219-14.691406 14.6875-14.691406 8.109375 0 14.6875 6.578124 14.6875 14.691406zm0 0"/><path d="m193.707031 148.933594c0 8.109375-6.578125 14.6875-14.6875 14.6875-8.113281 0-14.691406-6.578125-14.691406-14.6875 0-8.113282 6.578125-14.691406 14.691406-14.691406 8.109375 0 14.6875 6.578124 14.6875 14.691406zm0 0"/></svg>